<svg xmlns="http://www.w3.org/2000/svg" xmlns:xlink="http://www.w3.org/1999/xlink" viewBox="0 0 113.57 113.57"><defs><style>.cls-1{fill:url(#linear-gradient);}.cls-2{fill:url(#linear-gradient-2);}.cls-3{fill:url(#linear-gradient-3);}.cls-4{fill:url(#linear-gradient-4);}.cls-5{fill:url(#linear-gradient-5);}.cls-6{fill:url(#linear-gradient-6);}</style><linearGradient id="linear-gradient" x1="56.35" y1="112.85" x2="56.35" y2="-0.77" gradientUnits="userSpaceOnUse"><stop offset="0" stop-color="#0965ae"/><stop offset="0.12" stop-color="#2760a9"/><stop offset="0.32" stop-color="#5859a2"/><stop offset="0.5" stop-color="#7b539c"/><stop offset="0.65" stop-color="#905099"/><stop offset="0.75" stop-color="#984f98"/><stop offset="0.98" stop-color="#e14481"/><stop offset="1" stop-color="#e8437f"/></linearGradient><linearGradient id="linear-gradient-2" x1="56.78" y1="112.85" x2="56.78" y2="-0.72" xlink:href="#linear-gradient"/><linearGradient id="linear-gradient-3" x1="59.05" y1="112.85" x2="59.05" y2="-0.77" xlink:href="#linear-gradient"/><linearGradient id="linear-gradient-4" x1="53.19" y1="112.85" x2="53.19" y2="-0.77" xlink:href="#linear-gradient"/><linearGradient id="linear-gradient-5" x1="40.83" y1="112.85" x2="40.83" y2="-0.77" xlink:href="#linear-gradient"/><linearGradient id="linear-gradient-6" x1="43.83" y1="112.85" x2="43.83" y2="-0.77" xlink:href="#linear-gradient"/></defs><title>astronaut</title><g id="Слой_2" data-name="Слой 2"><g id="Слой_1-2" data-name="Слой 1"><path class="cls-1" d="M67.06,112.61a1.33,1.33,0,0,1-1.24-.84,26.77,26.77,0,0,1-.9-3.33c-1.65-5.85-2.46-10.89-1-16.19.23-.82.83-1,2-1.22C87.71,86.29,100,71.51,100.7,49.43c0-.07,0-9.73-3.15-14.75a6.63,6.63,0,0,0-5.49-2.41c-3.41.61-5,3.91-4.67,9.81l.16,3-2.34-1.93A4,4,0,0,0,84,42.42c-.3.14-.33.27-.35.32s-.17.89,1.18,2.87L88,49.84l-.08.55c-1.17,8-4.23,13.76-9.08,17.07-4.69,3.2-10.92,4-18,2.36a1.54,1.54,0,0,1-.23-2.94c1.82-.73,7.45-3.82,9.27-5.68,5.16-5.26,5.89-9.76,6.47-16.54a29.49,29.49,0,0,0-3-16.36A15.79,15.79,0,0,0,70,23.64a26.54,26.54,0,0,0-35.11-.8c-5.79,4.88-7.38,9-8.43,15.36C26,43.32,26,53,31.16,59.1c.61.73,1.91,2.13,2.79,3a1.48,1.48,0,0,1-1.15,2.53c-10.08-.79-17.5,3.57-21.1,7.92a1.33,1.33,0,1,1-2-1.7c3.66-4.42,10.82-8.85,20.41-9-.36-.4-.69-.77-.93-1.05C23.35,54,23.3,43.5,23.78,37.88c1.14-7,3-11.68,9.35-17.07A29,29,0,0,1,54.42,14a29.28,29.28,0,0,1,17.34,7.65,18.44,18.44,0,0,1,4,5.44A32,32,0,0,1,79,44.88c-.61,7.16-1.45,12.29-7.22,18.18a35.24,35.24,0,0,1-7.05,4.74c5,.59,9.29-.27,12.63-2.55,4.1-2.8,6.75-7.74,7.86-14.71l-2.57-3.4c-1.47-2.16-2-3.84-1.57-5.18a3.23,3.23,0,0,1,2-2.06,2.44,2.44,0,0,1,1.62,0c.22-5.85,2.62-9.44,6.88-10.21,3.27-.6,7,1.69,8.21,3.6,3.63,5.69,3.57,15.8,3.57,16.23-.7,23.45-13.77,39.12-36.81,44.16l-.23.05c-.91,3.86-.56,7.91,1.19,14.12a25.62,25.62,0,0,0,.78,3,1.33,1.33,0,0,1-1.24,1.83Z"/><path class="cls-2" d="M56.85,113.57a57.42,57.42,0,0,1-7.16-.45,56.72,56.72,0,1,1,17.62-.52,1.33,1.33,0,1,1-.49-2.61,54.16,54.16,0,1,0-16.79.5,54.66,54.66,0,0,0,7.92.42h0a1.33,1.33,0,0,1,0,2.66Z"/><path class="cls-3" d="M59,64a56.51,56.51,0,0,1-8.8-1.07,26.23,26.23,0,0,1-3.13-.76C46,61.8,44.87,61.41,43.8,61a1.33,1.33,0,0,1,1-2.46c1,.41,2,.78,3,1.08a23.82,23.82,0,0,0,2.81.68c9.39,1.61,10.44,1.4,14.26-1,2.92-1.81,5.38-7,6.52-11.37a20.87,20.87,0,0,0,1-6.63,1.33,1.33,0,0,1,1.24-1.42,1.31,1.31,0,0,1,1.42,1.23A23.23,23.23,0,0,1,74,48.6c-1.24,4.73-3.9,10.61-7.69,13C63.64,63.22,61.9,64,59,64Z"/><path class="cls-4" d="M38.58,57.86a1.32,1.32,0,0,1-.81-.27,12.4,12.4,0,0,1-3.24-3.47c-2.75-4.69-2.36-11.57-1.19-16l.17-.65c1.07-4.12,1.91-7.37,6.73-9.58s11.28-.38,16.06.94l1.58.43c1,.26,2.33.49,3.74.73,5,.86,11.22,1.92,12.27,6a1.33,1.33,0,0,1-2.58.67c-.62-2.38-6.35-3.36-10.14-4-1.47-.25-2.85-.49-4-.78l-1.61-.44c-4.14-1.14-10.4-2.85-14.24-1.08-3.67,1.69-4.23,3.87-5.26,7.83l-.17.65c-1,4-1.42,10,.91,14a9.81,9.81,0,0,0,2.56,2.7,1.33,1.33,0,0,1-.81,2.39Z"/><path class="cls-5" d="M39.36,63.29a7.58,7.58,0,0,1-1-.07,2.56,2.56,0,0,1-2.27-1.37,1.64,1.64,0,0,1,.28-1.65,11,11,0,0,0,.92-3.8,1.33,1.33,0,0,1,2.65.26,17.13,17.13,0,0,1-.83,4A5.22,5.22,0,0,0,43.33,59a1.33,1.33,0,0,1,2.12,1.61A7.72,7.72,0,0,1,39.36,63.29Z"/><path class="cls-6" d="M40.42,37.57a1.33,1.33,0,0,1-1.18-1.94,7,7,0,0,1,8.39-3.52,1.33,1.33,0,1,1-.82,2.53,4.37,4.37,0,0,0-5.22,2.22A1.34,1.34,0,0,1,40.42,37.57Z"/></g></g></svg>