<?xml version="1.0" encoding="utf-8"?>
<!-- Generator: Adobe Illustrator 13.0.0, SVG Export Plug-In . SVG Version: 6.00 Build 14948)  -->
<!DOCTYPE svg PUBLIC "-//W3C//DTD SVG 1.1//EN" "http://www.w3.org/Graphics/SVG/1.1/DTD/svg11.dtd">
<svg version="1.1" id="Layer_1" xmlns="http://www.w3.org/2000/svg" xmlns:xlink="http://www.w3.org/1999/xlink" x="0px" y="0px"
	 width="17.95px" height="18.15px" viewBox="0 0 17.95 18.15" enable-background="new 0 0 17.95 18.15" xml:space="preserve">
<g>
	<g>
		<path fill="none" stroke="#FFFFFF" stroke-width="1.5" stroke-linecap="round" stroke-linejoin="round" d="M11.149,11.25
			c-1.2,1.2-2.6,1.7-4.2,1.7c-1.7,0-3.2-0.5-4.4-1.8c-0.9-0.9-1.5-2-1.7-3.4c-0.1-0.3-0.1-0.6-0.1-0.9c0-1.7,0.6-3.1,1.8-4.3
			c1.2-1.2,2.7-1.8,4.4-1.8c1.6,0,3.1,0.6,4.2,1.8c1.3,1.2,1.9,2.6,1.9,4.3c0,0.3,0,0.6-0.1,0.9c-0.2,1.4-0.8,2.5-1.8,3.4
			C11.149,11.25,11.149,11.25,11.149,11.25"/>
		
			<line fill="none" stroke="#FFFFFF" stroke-width="2" stroke-linecap="round" stroke-linejoin="round" x1="11.35" y1="11.55" x2="16.95" y2="17.15"/>
	</g>
</g>
</svg>
